<svg width="44" height="44" viewBox="0 0 44 44" fill="none" xmlns="http://www.w3.org/2000/svg">
<circle cx="22" cy="22" r="22" fill="#3B363F"/>
<path d="M18.625 23.5127C18.625 24.6282 19.4875 25.5252 20.5455 25.5252H22.7075C23.6275 25.5252 24.375 24.7432 24.375 23.7657C24.375 22.7192 23.915 22.3397 23.2365 22.0982L19.775 20.8907C19.0965 20.6492 18.6365 20.2812 18.6365 19.2232C18.6365 18.2573 19.384 17.4638 20.304 17.4638H22.466C23.524 17.4638 24.3865 18.3608 24.3865 19.4762M21.5 16.325V26.675M33 21.5C33 27.848 27.848 33 21.5 33C15.152 33 10 27.848 10 21.5C10 15.152 15.152 10 21.5 10" stroke="white" stroke-width="1.5" stroke-linecap="round" stroke-linejoin="round"/>
<path d="M33 14.6V10M33 10H28.4M33 10L27.25 15.75" stroke="#58FF91" stroke-width="1.5" stroke-linecap="round" stroke-linejoin="round"/>
</svg>
