<svg width="44" height="44" viewBox="0 0 44 44" fill="none" xmlns="http://www.w3.org/2000/svg">
<circle cx="22" cy="22" r="22" fill="#3B363F"/>
<path d="M18.625 24.5127C18.625 25.6282 19.4875 26.5252 20.5455 26.5252H22.7075C23.6275 26.5252 24.375 25.7432 24.375 24.7657C24.375 23.7192 23.915 23.3397 23.2365 23.0982L19.775 21.8907C19.0965 21.6492 18.6365 21.2812 18.6365 20.2232C18.6365 19.2573 19.384 18.4638 20.304 18.4638H22.466C23.524 18.4638 24.3865 19.3608 24.3865 20.4762M21.5 17.325V27.675M33 22.5C33 28.848 27.848 34 21.5 34C15.152 34 10 28.848 10 22.5C10 16.152 15.152 11 21.5 11" stroke="white" stroke-width="1.5" stroke-linecap="round" stroke-linejoin="round"/>
<path d="M29 11V18.5" stroke="#FFD058" stroke-linecap="round"/>
<path d="M32.75 14.75L25.25 14.75" stroke="#FFD058" stroke-linecap="round"/>
</svg>
