<svg width="18" height="18" viewBox="0 0 18 18" fill="none" xmlns="http://www.w3.org/2000/svg">
<g clip-path="url(#clip0_1_3147)">
<path fill-rule="evenodd" clip-rule="evenodd" d="M17.0695 7.07452C17.0203 7.07139 16.9668 7.07141 16.9113 7.07143H14.7214C12.9277 7.07143 11.393 8.49438 11.393 10.35C11.393 12.2056 12.9277 13.6286 14.7214 13.6286H16.9113C16.9668 13.6286 17.0203 13.6286 17.0695 13.6255C17.798 13.5791 18.4423 13.0045 18.4965 12.2019C18.5001 12.1493 18.5 12.0926 18.5 12.04V8.65998C18.5 8.60742 18.5001 8.55072 18.4965 8.49807C18.4423 7.69554 17.798 7.12088 17.0695 7.07452ZM14.5285 11.2243C14.9902 11.2243 15.3646 10.8328 15.3646 10.35C15.3646 9.86715 14.9902 9.47574 14.5285 9.47574C14.0667 9.47574 13.6923 9.86715 13.6923 10.35C13.6923 10.8328 14.0667 11.2243 14.5285 11.2243Z" fill="black"/>
<path fill-rule="evenodd" clip-rule="evenodd" d="M16.9107 14.94C17.04 14.9367 17.1379 15.0574 17.1028 15.1829C16.9287 15.8058 16.6523 16.3366 16.2088 16.7836C15.5596 17.438 14.7365 17.7283 13.7194 17.8661C12.7312 18 11.4685 18 9.87422 18H8.04146C6.44723 18 5.18451 18 4.19627 17.8661C3.17923 17.7283 2.35604 17.438 1.70686 16.7836C1.05768 16.1294 0.769577 15.2997 0.63284 14.2747C0.499973 13.2787 0.499991 12.0061 0.5 10.3993V10.3007C0.499982 8.69391 0.499973 7.42131 0.63284 6.42531C0.769577 5.40028 1.05768 4.57063 1.70686 3.91634C2.35604 3.26206 3.17923 2.97169 4.19627 2.83388C5.1845 2.69997 6.44722 2.69999 8.04146 2.7H9.87422C11.4685 2.69998 12.7312 2.69997 13.7194 2.83388C14.7365 2.97169 15.5596 3.26206 16.2088 3.91634C16.6523 4.36335 16.9287 4.89423 17.1028 5.51711C17.1379 5.64263 17.04 5.76338 16.9107 5.76L14.7214 5.76001C12.2606 5.76001 10.0918 7.71921 10.0918 10.35C10.0918 12.9808 12.2606 14.94 14.7214 14.94H16.9107ZM3.75301 6.19715C3.3937 6.19715 3.10241 6.49072 3.10241 6.85286C3.10241 7.21503 3.3937 7.50861 3.75301 7.50861H7.22289C7.58221 7.50861 7.87352 7.21503 7.87352 6.85286C7.87352 6.49072 7.58221 6.19715 7.22289 6.19715H3.75301Z" fill="black"/>
<path d="M5.69901 1.82195L7.46194 0.523132C8.40866 -0.174377 9.69134 -0.174377 10.6381 0.523132L12.4102 1.82877C11.6693 1.79995 10.8418 1.79998 9.93461 1.8H7.98107C7.15211 1.79998 6.38969 1.79996 5.69901 1.82195Z" fill="black"/>
</g>
<defs>
<clipPath id="clip0_1_3147">
<rect width="18" height="18" fill="white"/>
</clipPath>
</defs>
</svg>
