<svg width="29" height="29" viewBox="0 0 29 29" fill="none" xmlns="http://www.w3.org/2000/svg">
<rect x="29" y="29" width="29" height="29" rx="14.5" transform="rotate(-180 29 29)" fill="#242424"/>
<path d="M20.3536 14.3536C20.5488 14.1583 20.5488 13.8417 20.3536 13.6464L17.1716 10.4645C16.9763 10.2692 16.6597 10.2692 16.4645 10.4645C16.2692 10.6597 16.2692 10.9763 16.4645 11.1716L19.2929 14L16.4645 16.8284C16.2692 17.0237 16.2692 17.3403 16.4645 17.5355C16.6597 17.7308 16.9763 17.7308 17.1716 17.5355L20.3536 14.3536ZM9 14.5L20 14.5L20 13.5L9 13.5L9 14.5Z" fill="white"/>
</svg>
